<?xml version="1.0" encoding="utf-8"?>
<!-- Generator: Adobe Illustrator 28.2.0, SVG Export Plug-In . SVG Version: 6.00 Build 0)  -->
<svg version="1.1" id="Layer_2_00000021085132419208433250000002905757061043977657_"
	 xmlns="http://www.w3.org/2000/svg" xmlns:xlink="http://www.w3.org/1999/xlink" x="0px" y="0px" viewBox="0 0 471.5 116.5"
	 style="enable-background:new 0 0 471.5 116.5;" xml:space="preserve">
<style type="text/css">
	.st0{enable-background:new    ;}
	.st1{fill:#FFFFFF;}
	.st2{fill-rule:evenodd;clip-rule:evenodd;fill:#FFFFFF;}
</style>
<g id="Layer_1-2">
	<g>
		<g class="st0">
			<path class="st1" d="M155.3,27.8V31c0,4.5-3.2,6.8-9,6.8h-7.8V9.1h7.5c5.9,0,9,2.3,9,6.6V18c0,2.4-1.1,4-3.1,5
				C154.1,23.9,155.3,25.5,155.3,27.8z M145.1,14.1v6.7l0.7,0c1.5,0,2.3-0.9,2.3-2.3v-2.4c0-1.4-0.9-2.1-2.4-2.1L145.1,14.1z
				 M148.4,27.5c0-1.5-0.9-2.2-2.5-2.2l-0.8,0v7.5h0.8c1.6,0,2.5-0.7,2.5-2.2V27.5z"/>
			<path class="st1" d="M168.9,37.8l-0.5-3.7H164l-0.5,3.7h-6.8l5.8-28.7h7.6l5.8,28.7H168.9z M164.7,29.3h2.9l-1.5-9.9L164.7,29.3z
				"/>
			<path class="st1" d="M189.3,9.1h6.4v28.7h-7.2L184,22.6l0.1,15.2h-6.4V9.1h7.1l4.6,16.5L189.3,9.1z"/>
			<path class="st1" d="M209.7,37.8L206,27.1l-0.6,1.1v9.6h-6.7V9.1h6.7v9.4l3.9-9.4h7.5l-6.1,12.6l6.2,16.1H209.7z"/>
			<path class="st1" d="M233.4,32.1h6.9v5.7l-13.6,0V9.1h6.7L233.4,32.1z"/>
		</g>
		<g class="st0">
			<path class="st1" d="M242,29.2V17.6c0-5.5,3.5-8.9,9.1-8.9c5.5,0,9.1,3.4,9.1,8.9v11.5c0,5.6-3.5,9-9.1,9
				C245.5,38.2,242,34.8,242,29.2z M253.2,29.3V17.5c0-2.3-0.7-3.4-2.1-3.4c-1.4,0-2.1,1.1-2.1,3.4v11.8c0,2.4,0.7,3.6,2.1,3.6
				C252.5,32.9,253.2,31.7,253.2,29.3z"/>
		</g>
		<g class="st0">
			<path class="st1" d="M273.1,37.8l-0.5-3.7h-4.4l-0.5,3.7h-6.8l5.8-28.7h7.6l5.8,28.7H273.1z M268.9,29.3h2.9l-1.5-9.9L268.9,29.3
				z"/>
			<path class="st1" d="M293.5,9.1h6.4v28.7h-7.2l-4.5-15.2l0.1,15.2h-6.4V9.1h7.1l4.6,16.5L293.5,9.1z"/>
		</g>
		<g class="st0">
			<path class="st1" d="M156.6,63.7h-9.5V71h8.2v6.4h-8.2v8.8h9.5v6.6h-17.8V57.1l17.8,0V63.7z"/>
			<path class="st1" d="M179,57.1h11.5v35.7h-7.9l0.1-23.2l-3.7,23.2h-7.6l-3.7-23.6l0.1,23.6h-7.9V57.1h11.5l3.9,24.7L179,57.1z"/>
			<path class="st1" d="M202.6,57.1v35.7h-8.3V57.1H202.6z"/>
		</g>
		<g class="st0">
			<path class="st1" d="M217.4,82.2V67.7c0-7,4.3-11,11.2-11c6,0,10.2,3.5,10.3,9.3l0,3.9h-7.8l0-3.7c-0.1-1.7-1.1-2.7-2.5-2.7
				c-1.7,0-2.7,1.6-2.7,4.4v14.4c0,2.9,1,4.5,2.7,4.5c1.4,0,2.4-1.1,2.5-3l0-4.4h7.8l0,4.5c-0.1,6-4.3,9.6-10.3,9.6
				C221.7,93.3,217.4,89.3,217.4,82.2z"/>
		</g>
		<g class="st0">
			<path class="st1" d="M255.5,92.8l-0.7-4.6h-5.4l-0.7,4.6h-8.5l7.2-35.7h9.4l7.2,35.7H255.5z M250.2,82.2h3.6l-1.8-12.3
				L250.2,82.2z"/>
			<path class="st1" d="M274.7,85.8h8.6v7l-17,0V57.1h8.3L274.7,85.8z"/>
			<path class="st1" d="M285.3,82.2V67.7c0-7,4.3-11,11.2-11c6,0,10.2,3.5,10.3,9.3l0,3.9h-7.8l0-3.7c-0.1-1.7-1.1-2.7-2.5-2.7
				c-1.7,0-2.7,1.6-2.7,4.4v14.4c0,2.9,1,4.5,2.7,4.5c1.4,0,2.4-1.1,2.5-3l0-4.4h7.8l0,4.5c-0.1,6-4.3,9.6-10.3,9.6
				C289.6,93.3,285.3,89.3,285.3,82.2z"/>
			<path class="st1" d="M322.5,57.1h8.3v26.7c0,5.8-3.9,9.5-10.5,9.5c-6.7,0-10.5-3.7-10.5-9.5V57.1h8.3v27c0,1.5,0.8,2.4,2.3,2.4
				c1.4,0,2.2-0.9,2.2-2.4V57.1z"/>
			<path class="st1" d="M342.8,85.8h8.6v7l-17,0V57.1h8.3V85.8z"/>
		</g>
		<g class="st0">
			<path class="st1" d="M370.3,92.8l-0.7-4.6h-5.4l-0.7,4.6H355l7.2-35.7h9.4l7.2,35.7H370.3z M365.1,82.2h3.6l-1.8-12.3L365.1,82.2
				z"/>
		</g>
		<g class="st0">
			<path class="st1" d="M397.3,57.1V64h-6.2v28.8h-8.3V64h-6.2v-6.9H397.3z"/>
		</g>
		<g class="st0">
			<path class="st1" d="M399.1,82.1V67.7c0-6.9,4.4-11.1,11.3-11.1c6.9,0,11.3,4.2,11.3,11.1v14.4c0,7-4.4,11.3-11.3,11.3
				C403.5,93.3,399.1,89,399.1,82.1z M413,82.2V67.6c0-2.8-0.9-4.3-2.7-4.3c-1.7,0-2.6,1.4-2.6,4.3v14.7c0,2.9,0.9,4.4,2.6,4.4
				C412.1,86.6,413,85.2,413,82.2z"/>
			<path class="st1" d="M446.5,92.8h-8.4l-3.4-13c-0.1,0-0.2,0-0.3,0h-1.1v13h-8.3V57.1h9.4c7.1,0,11.2,3.3,11.2,9v4.4
				c0,3-1.1,5.4-3.1,7L446.5,92.8z M433.3,63.6v10h0.5c2,0,3.2-1.1,3.2-2.9v-4.4c0-1.7-1.2-2.7-3.2-2.7L433.3,63.6z"/>
			<path class="st1" d="M469.3,84.9c0,5.8-4.8,8.4-10.5,8.4c-7.3,0-10.4-4.1-10.4-9v-4.2h7.6v4.2c0,1.7,0.9,2.6,2.7,2.6
				c1.5,0,2.3-0.8,2.3-1.9v-2.5c0-5.5-12.5-4.9-12.5-15.2v-2.4c0-5.3,4.3-8.2,10-8.2c7.3,0,10.4,3.8,10.4,8.7v3.9h-7.6v-3.9
				c0-1.4-0.9-2.2-2.4-2.2c-1.4,0-2.3,0.7-2.3,1.9v2.4c0,5.2,12.7,4.5,12.7,15L469.3,84.9z"/>
		</g>
		<path class="st2" d="M97.3,53.6c6.8,7.5,11.9,14.1,15.2,20c12.2,21.5-5.2,43.3-28.5,42.9c-23.3,0.4-40.7-21.4-28.5-42.9
			c3.3-5.9,8.4-12.4,15.2-20c0.8,0.3,1.7,0.4,2.6,0.4h21.4C95.6,54,96.5,53.9,97.3,53.6C97.3,53.6,97.3,53.6,97.3,53.6z M10.7,0
			C4.8,0,0,4.8,0,10.7v78.1c0,5.9,4.8,10.7,10.7,10.7H50c-3.8-9.2-2.7-19.1,2.2-27.7c1-1.8,2.1-3.5,3.3-5.2
			c-0.7-0.4-1.1-1.2-1.1-2.1v-3.2c0-1.3,1.1-2.5,2.5-2.5h4.5c2-2.5,4.1-4.8,6.1-7.1c-0.6-0.6-1.1-1.2-1.6-2h-9
			c-1.3,0-2.5-1.1-2.5-2.5V44c0-1.3,1.1-2.5,2.5-2.5h8.9c0.8-1.5,1.9-2.7,3.4-3.5l-2.6-2.5c-1.6-1.5-2.4-3.6-2.5-5.6H14.2
			c-1.4,0-2.5-1.1-2.5-2.5v-9.6c0-1.4,1.1-2.5,2.5-2.5h54c1.3,0,2.5,1.1,2.5,2.5v3.1c1.7-0.4,3.6-0.3,5.3,0.4
			c1.1-2.7,3.6-4.7,6.5-5.2v-5.4C82.5,4.8,77.7,0,71.8,0L10.7,0L10.7,0z M73.3,50.3c-2.6,0-4.8-2.2-4.8-4.8s2.2-4.8,4.8-4.8h21.4
			c2.6,0,4.8,2.2,4.8,4.8s-2.2,4.8-4.8,4.8H73.3z M16.5,41.6h9.2c1.4,0,2.5,1.1,2.5,2.5v3.2c0,1.3-1.1,2.5-2.5,2.5h-9.2
			c-1.4,0-2.5-1.1-2.5-2.5V44C14,42.7,15.1,41.6,16.5,41.6z M36.7,76c-1.3,0-2.5,1.1-2.5,2.5v3.2c0,1.3,1.1,2.5,2.5,2.5h9.2
			c1.3,0,2.5-1.1,2.5-2.5v-3.2c0-1.3-1.1-2.5-2.5-2.5H36.7z M16.5,76h9.2c1.4,0,2.5,1.1,2.5,2.5v3.2c0,1.3-1.1,2.5-2.5,2.5h-9.2
			c-1.4,0-2.5-1.1-2.5-2.5v-3.2C14,77.1,15.1,76,16.5,76z M36.7,58.8c-1.3,0-2.5,1.1-2.5,2.5v3.2c0,1.3,1.1,2.5,2.5,2.5h9.2
			c1.3,0,2.5-1.1,2.5-2.5v-3.2c0-1.3-1.1-2.5-2.5-2.5H36.7z M16.5,58.8h9.2c1.4,0,2.5,1.1,2.5,2.5v3.2c0,1.3-1.1,2.5-2.5,2.5h-9.2
			c-1.4,0-2.5-1.1-2.5-2.5v-3.2C14,59.9,15.1,58.8,16.5,58.8z M36.7,41.6h9.2c1.3,0,2.5,1.1,2.5,2.5v3.2c0,1.3-1.1,2.5-2.5,2.5h-9.2
			c-1.3,0-2.5-1.1-2.5-2.5V44C34.2,42.7,35.3,41.6,36.7,41.6z M83.8,94c-1.4,0-2.8-0.4-4-1.2c-1-0.7-1.8-1.7-2.1-2.9
			c-0.3-1.2-1.5-1.9-2.6-1.6s-1.9,1.5-1.6,2.6c0.6,2.4,2.1,4.3,3.9,5.5c1.3,0.8,2.8,1.4,4.3,1.7v1.7c0,1.2,1,2.2,2.2,2.2
			s2.2-1,2.2-2.2v-1.7c1.9-0.3,3.8-1,5.3-2.1c1.8-1.4,3-3.4,3-6c0-0.3,0-0.6-0.1-0.8c-0.3-2.9-1.9-4.8-4-6.1c-1.8-1.1-4-1.7-6.1-2
			c-1.4-0.2-3-0.6-4.1-1.4c-0.9-0.6-1.5-1.4-1.6-2.6c-0.1-1.3,0.5-2.3,1.4-3.1c0.7-0.6,1.6-1,2.6-1.2c0.4-0.1,0.8-0.1,1.2-0.1
			c0,0,0.1,0,0.1,0c0.1,0,0.1,0,0.2,0c0.5,0,1.1,0.1,1.6,0.2c1.6,0.4,3.1,1.5,3.9,3.3c0.5,1.1,1.7,1.6,2.8,1.2
			c1.1-0.5,1.6-1.7,1.2-2.8c-1.4-3.3-4-5.1-6.8-5.9c-0.2-0.1-0.4-0.1-0.6-0.1V67c0-1.2-1-2.2-2.2-2.2s-2.2,1-2.2,2.2v1.7
			c-1.7,0.3-3.2,1-4.4,2.1c-1.9,1.6-3.1,3.8-3,6.7c0.1,2.8,1.6,4.7,3.5,6c1.7,1.1,3.8,1.7,5.8,2c1.6,0.3,3.2,0.7,4.5,1.4
			c1,0.6,1.8,1.5,1.9,2.8c0,0.2,0,0.3,0,0.4c0,1.1-0.5,1.9-1.2,2.5c-1,0.7-2.3,1.2-3.7,1.3c-0.4,0-0.7,0.1-1,0.1h-0.1
			c-0.1,0-0.1,0-0.2,0C83.9,94,83.8,94,83.8,94L83.8,94L83.8,94z M73.3,36.9l-4.1-4.1c-1.9-1.9-1.9-5,0-7c1.6-1.6,4.2-1.9,6.2-0.7
			c0.7,0.5,1.6,0.5,2.3,0.2c0.8-0.3,1.3-1,1.5-1.8c0.5-2.2,2.5-3.9,4.8-3.9c2.3,0,4.3,1.6,4.8,3.9c0.2,0.8,0.7,1.5,1.5,1.8
			s1.6,0.2,2.3-0.2c1.9-1.2,4.5-1,6.2,0.7l0,0c1.9,1.9,1.9,5,0,7l-4.1,4.1h0L73.3,36.9L73.3,36.9L73.3,36.9z"/>
	</g>
</g>
</svg>
